<svg xmlns="http://www.w3.org/2000/svg" version="1.1" xmlns:xlink="http://www.w3.org/1999/xlink" xmlns:svgjs="http://svgjs.dev/svgjs" viewBox="0 0 600 600"><path d="M195.46090698242188,174.93017578125C193.19135538736978,163.23324839274088,185.50979359944662,144.5530751546224,191.27096557617188,139.31564331054688C197.03213755289713,134.07821146647134,217.6326904296875,142.28351593017578,230.02793884277344,143.50558471679688C242.42318725585938,144.72765350341797,253.42178599039713,145.9497299194336,265.6424560546875,146.64805603027344C277.86312611897785,147.34638214111328,290.78212483723956,148.74302927652994,303.3519592285156,147.69554138183594C315.9217936197917,146.64805348714194,331.11034138997394,138.96648152669272,341.06146240234375,140.36312866210938C351.01258341471356,141.75977579752603,357.2975107828776,149.965087890625,363.0586853027344,156.07542419433594C368.8198598225911,162.18576049804688,374.4064432779948,168.99442036946616,375.6285095214844,177.025146484375C376.85057576497394,185.05587259928384,372.66063435872394,195.53073120117188,370.3910827636719,204.25978088378906C368.1215311686198,212.98883056640625,366.0265655517578,222.0670420328776,362.0111999511719,229.39944458007812C357.99583435058594,236.73184712727866,353.1075490315755,241.6201171875,346.29888916015625,248.2541961669922C339.490229288737,254.88827514648438,330.93577575683594,264.83939361572266,321.15924072265625,269.20391845703125C311.38270568847656,273.56844329833984,298.28912353515625,273.9176025390625,287.6396789550781,274.44134521484375C276.990234375,274.965087890625,267.38827260335285,273.9176025390625,257.2625732421875,272.34637451171875C247.13687388102213,270.775146484375,234.21788279215494,270.42598724365234,226.88548278808594,265.01397705078125C219.55308278401694,259.60196685791016,216.9343744913737,249.12710825602213,213.26817321777344,239.8743133544922C209.6019719441732,230.62151845296225,207.8561528523763,220.32123057047525,204.88827514648438,209.49720764160156C201.92039744059244,198.67318471272787,197.73045857747397,186.62710316975912,195.46090698242188,174.93017578125C193.19135538736978,163.23324839274088,185.50979359944662,144.5530751546224,191.27096557617188,139.31564331054688" fill="hsl(0, 0%, 90%)"></path></svg>