<?xml version="1.0" encoding="utf-8"?>
<!-- Generator: Adobe Illustrator 27.5.0, SVG Export Plug-In . SVG Version: 6.00 Build 0)  -->
<svg version="1.1" id="Layer_1" xmlns="http://www.w3.org/2000/svg" xmlns:xlink="http://www.w3.org/1999/xlink" x="0px" y="0px"
	 viewBox="0 0 512 512" enable-background="new 0 0 512 512" xml:space="preserve">
<g>
	<g>
		<path fill="#FFD353" d="M376.035,70.043v-29.69c0-3.17-2.58-5.75-5.76-5.75c-3.17,0-5.75,2.58-5.75,5.75v29.69H376.035z"/>
		<path fill="#FFD353" d="M422.625,94.133l21.01-21.01c2.25-2.24,2.25-5.89,0-8.13c-2.24-2.25-5.88-2.25-8.13,0l-21.01,21.01
			L422.625,94.133z"/>
		<path fill="#FFD353" d="M438.585,144.093h29.68c3.18,0,5.75-2.57,5.75-5.75c0-3.17-2.57-5.75-5.75-5.75h-29.68V144.093z"/>
		<path fill="#FFD353" d="M414.495,190.693l21.01,21.01c1.12,1.12,2.6,1.68,4.07,1.68c1.47,0,2.94-0.56,4.06-1.68
			c2.25-2.25,2.25-5.89,0-8.13l-21.01-21.01L414.495,190.693z"/>
		<path fill="#FFD353" d="M364.525,206.653v29.68c0,3.18,2.58,5.75,5.75,5.75c3.18,0,5.76-2.57,5.76-5.75v-29.68H364.525z"/>
		<path fill="#FFD353" d="M317.935,182.563l-21.01,21.01c-2.24,2.24-2.24,5.88,0,8.13c1.13,1.12,2.6,1.68,4.07,1.68
			c1.47,0,2.94-0.56,4.06-1.68l21.01-21.01L317.935,182.563z"/>
		<path fill="#FFD353" d="M301.975,132.593h-29.68c-3.18,0-5.75,2.58-5.75,5.75c0,3.18,2.57,5.75,5.75,5.75h29.68V132.593z"/>
		<path fill="#FFD353" d="M326.065,86.003l-21.01-21.01c-2.24-2.25-5.88-2.25-8.13,0c-2.24,2.24-2.24,5.88,0,8.13l21.01,21.01
			L326.065,86.003z"/>
	</g>
	<g>
		<path fill="#80848D" d="M35.885,478.203c-3.18,0-5.75,2.57-5.75,5.75c0,3.17,2.57,5.75,5.75,5.75h441.56
			c3.18,0,5.75-2.58,5.75-5.75c0-3.18-2.57-5.75-5.75-5.75H35.885z"/>
	</g>
	<path fill="#8ED7EE" d="M413.845,395.923v72.28h-13.44v-72.28H413.845z M175.185,369.083v99.12h21.45v-99.12H175.185z
		 M108.235,259.183h-49.22l-14.9-36.04h49.23L108.235,259.183z M168.315,259.183h-47.64l-14.89-36.04h47.64L168.315,259.183z
		 M229.985,259.183h-49.22l-14.9-36.04h49.23L229.985,259.183z M251.095,310.253h-49.23l-16.35-39.57h49.22L251.095,310.253z
		 M189.425,310.253h-47.64l-16.35-39.57h47.64L189.425,310.253z M129.335,310.253h-49.22l-16.35-39.57h49.22L129.335,310.253z
		 M148.895,357.583h-49.23l-14.8-35.83h49.22L148.895,357.583z M208.975,357.583h-47.64l-14.8-35.83h47.64L208.975,357.583z
		 M270.645,357.583h-49.22l-14.81-35.83h49.23L270.645,357.583z M438.415,309.903h-34.25l-10.13-24.51h34.26L438.415,309.903z
		 M454.405,348.583h-34.26l-11.23-27.18h34.26L454.405,348.583z M407.705,348.583h-33.07l-11.23-27.18h33.07L407.705,348.583z
		 M391.725,309.903h-33.07l-10.12-24.51h33.06L391.725,309.903z M346.215,309.903h-34.26l-10.13-24.51h34.26L346.215,309.903z
		 M362.195,348.583h-34.26l-11.23-27.18h34.26L362.195,348.583z M377.005,384.423h-34.26l-10.06-24.34h34.27L377.005,384.423z
		 M422.515,384.423h-33.07l-10.05-24.34h33.06L422.515,384.423z M469.215,384.423h-34.26l-10.06-24.34h34.26L469.215,384.423z"/>
	<path fill="#FFD353" d="M427.335,138.343c0,31.47-25.59,57.07-57.06,57.07c-31.46,0-57.06-25.6-57.06-57.07
		c0-31.46,25.6-57.06,57.06-57.06C401.745,81.283,427.335,106.883,427.335,138.343z"/>
</g>
</svg>
