<svg xmlns="http://www.w3.org/2000/svg" version="1.1" xmlns:xlink="http://www.w3.org/1999/xlink" xmlns:svgjs="http://svgjs.dev/svgjs" viewBox="0 0 600 600"><path d="M182.05307006835938,280.0977783203125C174.72066752115884,273.2891209920247,170.70530954996744,263.6871643066406,172.62570190429688,253.91062927246094C174.5460942586263,244.13409423828125,182.75140126546225,230.34219868977866,193.57542419433594,221.43856811523438C204.39944712320963,212.5349375406901,221.33380381266275,203.9804662068685,237.56983947753906,200.4888458251953C253.80587514241537,196.99722544352213,275.4539311726888,195.77515920003256,290.99163818359375,200.4888458251953C306.5293451944987,205.20253245035806,324.6857503255208,218.6452662150065,330.79608154296875,228.77096557617188C336.9064127604167,238.89666493733725,330.9706624348958,248.67320760091147,327.65362548828125,261.2430419921875C324.3365885416667,273.81287638346356,321.36871846516925,295.2863413492839,310.89385986328125,304.1899719238281C300.41900126139325,313.0936024983724,277.1997248331706,314.31566365559894,264.8044738769531,314.6648254394531C252.4092229207357,315.0139872233073,244.5530802408854,309.60198465983075,236.52235412597656,306.2849426269531C228.49162801106772,302.9679005940755,225.69833119710287,299.1271006266276,216.6201171875,294.7625732421875C207.54190317789713,290.3980458577474,189.3854726155599,286.9064356486003,182.05307006835938,280.0977783203125C174.72066752115884,273.2891209920247,170.70530954996744,263.6871643066406,172.62570190429688,253.91062927246094" fill="hsl(50, 60%, 90%)" transform="matrix(1,0,0,1,47.20453643798828,43.962059020996094)" fill-opacity="1"></path></svg>